<svg xmlns="http://www.w3.org/2000/svg" xmlns:xlink="http://www.w3.org/1999/xlink" width="800" height="450" viewBox="0 0 800 450">
  <defs>
    <marker id="arrowhead" markerWidth="10" markerHeight="7" refX="9" refY="3.5" orient="auto">
      <polygon points="0 0, 10 3.5, 0 7" fill="#000" />
    </marker>
  </defs>
  
  <!-- 背景 -->
  <rect x="50" y="50" width="700" height="350" rx="10" ry="10" fill="#f9f9f9" stroke="#ccc" stroke-width="1" />
  
  <!-- 标题 -->
  <text x="400" y="30" text-anchor="middle" font-family="Arial" font-size="16" font-weight="bold">注解驱动的拓展入口</text>
  
  <!-- 节点 -->
  <rect x="100" y="100" width="170" height="40" rx="5" ry="5" fill="#fff" stroke="#e74c3c" stroke-width="2" />
  <text x="185" y="125" text-anchor="middle" font-family="Arial" font-size="14">@EnableMethodCache</text>
  
  <rect x="320" y="100" width="180" height="40" rx="5" ry="5" fill="#fff" stroke="#3498db" stroke-width="2" />
  <text x="410" y="125" text-anchor="middle" font-family="Arial" font-size="14">ConfigSelector</text>
  
  <rect x="550" y="100" width="170" height="40" rx="5" ry="5" fill="#fff" stroke="#3498db" stroke-width="2" />
  <text x="635" y="125" text-anchor="middle" font-family="Arial" font-size="14">CommonConfiguration</text>
  
  <rect x="320" y="180" width="230" height="40" rx="5" ry="5" fill="#fff" stroke="#2ecc71" stroke-width="2" />
  <text x="435" y="205" text-anchor="middle" font-family="Arial" font-size="14">JetCacheProxyConfiguration</text>
  
  <rect x="550" y="180" width="170" height="40" rx="5" ry="5" fill="#fff" stroke="#2ecc71" stroke-width="2" />
  <text x="635" y="205" text-anchor="middle" font-family="Arial" font-size="14">AutoProxyRegistrar</text>
  
  <rect x="100" y="220" width="200" height="40" rx="5" ry="5" fill="#fff" stroke="#e74c3c" stroke-width="2" />
  <text x="200" y="245" text-anchor="middle" font-family="Arial" font-size="14">@EnableCreateCacheAnnotation</text>
  
  <rect x="350" y="260" width="150" height="40" rx="5" ry="5" fill="#fff" stroke="#3498db" stroke-width="2" />
  <text x="425" y="285" text-anchor="middle" font-family="Arial" font-size="14">CacheAdvisor</text>
  
  <rect x="550" y="260" width="170" height="40" rx="5" ry="5" fill="#fff" stroke="#3498db" stroke-width="2" />
  <text x="635" y="285" text-anchor="middle" font-family="Arial" font-size="14">JetCacheInterceptor</text>
  
  <rect x="350" y="340" width="150" height="40" rx="5" ry="5" fill="#fff" stroke="#2ecc71" stroke-width="2" />
  <text x="425" y="365" text-anchor="middle" font-family="Arial" font-size="14">ConfigMap</text>
  
  <!-- 连接线 -->
  <path d="M285 120 L320 120" stroke="#000" stroke-width="2" marker-end="url(#arrowhead)" />
  <text x="302.5" y="110" text-anchor="middle" font-family="Arial" font-size="12">导入</text>
  
  <path d="M185 140 L635 100" stroke="#000" stroke-width="2" marker-end="url(#arrowhead)" />
  <text x="410" y="120" text-anchor="middle" font-family="Arial" font-size="12">导入</text>
  
  <path d="M410 140 L435 180" stroke="#000" stroke-width="2" marker-end="url(#arrowhead)" />
  <text x="420" y="155" text-anchor="middle" font-family="Arial" font-size="12">选择</text>
  
  <path d="M410 140 L635 180" stroke="#000" stroke-width="2" marker-end="url(#arrowhead)" />
  <text x="522.5" y="155" text-anchor="middle" font-family="Arial" font-size="12">选择</text>
  
  <path d="M200 260 L425 340" stroke="#000" stroke-width="2" marker-end="url(#arrowhead)" />
  <text x="312.5" y="300" text-anchor="middle" font-family="Arial" font-size="12">导入</text>
  
  <path d="M200 260 L635 100" stroke="#000" stroke-width="2" marker-end="url(#arrowhead)" />
  <text x="417.5" y="180" text-anchor="middle" font-family="Arial" font-size="12">导入</text>
  
  <path d="M435 220 L425 260" stroke="#000" stroke-width="2" marker-end="url(#arrowhead)" />
  <text x="420" y="235" text-anchor="end" font-family="Arial" font-size="12">创建Bean</text>
  
  <path d="M435 220 L635 260" stroke="#000" stroke-width="2" marker-end="url(#arrowhead)" />
  <text x="535" y="235" text-anchor="middle" font-family="Arial" font-size="12">创建Bean</text>
  
  <path d="M635 140 L425 340" stroke="#000" stroke-width="2" marker-end="url(#arrowhead)" />
  <text x="530" y="235" text-anchor="middle" font-family="Arial" font-size="12">创建Bean</text>
</svg>