<svg xmlns="http://www.w3.org/2000/svg" xmlns:xlink="http://www.w3.org/1999/xlink" width="800" height="400" viewBox="0 0 800 400">
  <defs>
    <marker id="arrowhead" markerWidth="10" markerHeight="7" refX="9" refY="3.5" orient="auto">
      <polygon points="0 0, 10 3.5, 0 7" fill="#000" />
    </marker>
  </defs>
  
  <!-- 背景 -->
  <rect x="50" y="50" width="700" height="300" rx="10" ry="10" fill="#f9f9f9" stroke="#ccc" stroke-width="1" />
  
  <!-- 标题 -->
  <text x="400" y="30" text-anchor="middle" font-family="Arial" font-size="16" font-weight="bold">Spring Boot 自动配置入口</text>
  
  <!-- 节点 -->
  <rect x="100" y="100" width="150" height="40" rx="5" ry="5" fill="#fff" stroke="#3498db" stroke-width="2" />
  <text x="175" y="125" text-anchor="middle" font-family="Arial" font-size="14">spring.factories</text>
  
  <rect x="425" y="100" width="250" height="40" rx="5" ry="5" fill="#fff" stroke="#e74c3c" stroke-width="2" />
  <text x="550" y="125" text-anchor="middle" font-family="Arial" font-size="14">JetCacheAutoConfiguration</text>
  
  <rect x="100" y="180" width="200" height="40" rx="5" ry="5" fill="#fff" stroke="#3498db" stroke-width="2" />
  <text x="200" y="205" text-anchor="middle" font-family="Arial" font-size="14">AutoConfiguration.imports</text>
  
  <rect x="425" y="180" width="150" height="40" rx="5" ry="5" fill="#fff" stroke="#2ecc71" stroke-width="2" />
  <text x="500" y="205" text-anchor="middle" font-family="Arial" font-size="14">GlobalCacheConfig</text>
  
  <rect x="625" y="180" width="150" height="40" rx="5" ry="5" fill="#fff" stroke="#2ecc71" stroke-width="2" />
  <text x="700" y="205" text-anchor="middle" font-family="Arial" font-size="14">SpringConfigProvider</text>
  
  <rect x="425" y="260" width="150" height="40" rx="5" ry="5" fill="#fff" stroke="#2ecc71" stroke-width="2" />
  <text x="500" y="285" text-anchor="middle" font-family="Arial" font-size="14">SimpleCacheManager</text>
  
  <rect x="625" y="260" width="150" height="40" rx="5" ry="5" fill="#fff" stroke="#f39c12" stroke-width="2" />
  <text x="700" y="285" text-anchor="middle" font-family="Arial" font-size="14">RedisAutoConfiguration</text>
  
  <!-- 连接线 -->
  <path d="M250 120 L425 120" stroke="#000" stroke-width="2" marker-end="url(#arrowhead)" />
  <text x="337.5" y="110" text-anchor="middle" font-family="Arial" font-size="12">自动加载</text>
  
  <path d="M200 220 L425 220" stroke="#000" stroke-width="2" marker-end="url(#arrowhead)" />
  <text x="312.5" y="210" text-anchor="middle" font-family="Arial" font-size="12">自动加载</text>
  
  <path d="M550 140 L550 180" stroke="#000" stroke-width="2" marker-end="url(#arrowhead)" />
  <text x="560" y="160" text-anchor="start" font-family="Arial" font-size="12">创建Bean</text>
  
  <path d="M550 220 L625 220" stroke="#000" stroke-width="2" marker-end="url(#arrowhead)" />
  <text x="587.5" y="210" text-anchor="middle" font-family="Arial" font-size="12">创建Bean</text>
  
  <path d="M500 220 L500 260" stroke="#000" stroke-width="2" marker-end="url(#arrowhead)" />
  <text x="490" y="240" text-anchor="end" font-family="Arial" font-size="12">创建Bean</text>
  
  <path d="M550 220 L625 260" stroke="#000" stroke-width="2" marker-end="url(#arrowhead)" />
  <text x="587.5" y="240" text-anchor="middle" font-family="Arial" font-size="12">导入其他配置</text>
</svg>